<svg id="visual" viewBox="0 0 1920 1090" width="1920" height="1090" xmlns="http://www.w3.org/2000/svg" xmlns:xlink="http://www.w3.org/1999/xlink" version="1.1"><rect x="0" y="0" width="1920" height="1090" fill="#121212"></rect><defs><linearGradient id="grad1_0" x1="43.2%" y1="0%" x2="100%" y2="100%"><stop offset="14.77064220183486%" stop-color="#121212" stop-opacity="1"></stop><stop offset="85.22935779816515%" stop-color="#121212" stop-opacity="1"></stop></linearGradient></defs><defs><linearGradient id="grad2_0" x1="0%" y1="0%" x2="56.8%" y2="100%"><stop offset="14.77064220183486%" stop-color="#121212" stop-opacity="1"></stop><stop offset="85.22935779816515%" stop-color="#121212" stop-opacity="1"></stop></linearGradient></defs><g transform="translate(1920, 0)"><path d="M0 817.5C-96.7 778.1 -193.4 738.7 -290.8 702.1C-388.3 665.6 -486.5 631.8 -568.5 568.5C-650.6 505.3 -716.5 412.5 -755.3 312.8C-794.1 213.2 -805.8 106.6 -817.5 0L0 0Z" fill="#0078f2"></path></g><g transform="translate(0, 1090)"><path d="M0 -817.5C105.3 -791.1 210.7 -764.7 296.6 -716C382.5 -667.3 449 -596.4 529.6 -529.6C610.2 -462.9 704.9 -400.4 755.3 -312.8C805.6 -225.3 811.6 -112.6 817.5 0L0 0Z" fill="#0078f2"></path></g></svg>