<svg id="visual" viewBox="0 0 1920 1080" width="1920" height="1080" xmlns="http://www.w3.org/2000/svg" xmlns:xlink="http://www.w3.org/1999/xlink" version="1.1"><rect x="0" y="0" width="1920" height="1080" fill="#121212"></rect><defs><linearGradient id="grad1_0" x1="43.8%" y1="0%" x2="100%" y2="100%"><stop offset="14.444444444444446%" stop-color="#121212" stop-opacity="1"></stop><stop offset="85.55555555555554%" stop-color="#121212" stop-opacity="1"></stop></linearGradient></defs><defs><linearGradient id="grad2_0" x1="0%" y1="0%" x2="56.3%" y2="100%"><stop offset="14.444444444444446%" stop-color="#121212" stop-opacity="1"></stop><stop offset="85.55555555555554%" stop-color="#121212" stop-opacity="1"></stop></linearGradient></defs><g transform="translate(1920, 0)"><path d="M0 864C-96.8 818.4 -193.7 772.8 -306.5 740C-419.4 707.3 -548.3 687.3 -610.9 610.9C-673.6 534.5 -670.1 401.7 -701.2 290.5C-732.4 179.2 -798.2 89.6 -864 0L0 0Z" fill="#0078f2"></path></g><g transform="translate(0, 1080)"><path d="M0 -864C107 -834.4 214.1 -804.8 316.9 -765C419.6 -725.1 518.1 -675 602.5 -602.5C686.8 -529.9 757 -434.8 798.2 -330.6C839.5 -226.5 851.7 -113.2 864 0L0 0Z" fill="#0078f2"></path></g></svg>