<?xml version="1.0" standalone="no"?>
<!DOCTYPE svg PUBLIC "-//W3C//DTD SVG 20010904//EN"
 "http://www.w3.org/TR/2001/REC-SVG-20010904/DTD/svg10.dtd">
<svg version="1.0" xmlns="http://www.w3.org/2000/svg"
 width="1200.000000pt" height="1200.000000pt" viewBox="0 0 1200.000000 1200.000000"
 preserveAspectRatio="xMidYMid meet">

<g transform="translate(0.000000,1200.000000) scale(0.100000,-0.100000)"
fill="#000000" stroke="none">
<path d="M5705 9229 c-1107 -104 -2073 -755 -2586 -1744 -479 -923 -479 -2047
0 -2970 728 -1404 2341 -2077 3851 -1609 914 284 1672 983 2033 1874 355 877
310 1873 -122 2705 -516 995 -1483 1643 -2601 1745 -133 12 -444 11 -575 -1z
m-582 -3135 c70 -28 180 -100 227 -149 42 -44 37 -58 -40 -97 -69 -37 -137
-38 -207 -3 -72 36 -106 89 -111 171 -2 35 -1 75 2 89 6 24 10 26 39 20 18 -4
58 -18 90 -31z m1883 11 c3 -14 4 -54 2 -89 -5 -82 -39 -135 -111 -171 -70
-35 -138 -34 -207 3 -82 42 -85 54 -23 112 67 62 157 116 241 146 84 30 90 30
98 -1z m-1231 -1259 c39 -18 104 -58 145 -90 41 -31 77 -56 80 -56 3 0 38 25
79 56 204 153 343 165 370 32 l7 -32 22 36 c32 51 98 82 163 76 64 -6 97 -31
129 -93 l24 -50 9 38 c11 45 58 87 98 87 70 0 132 -50 170 -134 18 -42 21 -60
15 -119 -3 -38 -11 -77 -17 -88 -39 -74 -197 -76 -265 -4 l-32 34 -23 -25
c-28 -30 -76 -44 -154 -44 -79 0 -130 15 -154 46 -19 25 -21 25 -46 8 -55 -36
-272 -27 -357 15 -37 18 -39 18 -75 0 -86 -42 -303 -51 -358 -15 -25 17 -27
17 -46 -8 -24 -31 -75 -46 -154 -46 -78 0 -126 14 -154 44 l-23 25 -32 -34
c-37 -39 -102 -60 -164 -51 -86 12 -109 40 -118 147 -6 68 -4 78 22 128 57
107 157 151 221 97 18 -15 35 -42 40 -64 l9 -37 21 46 c30 67 73 94 149 94 69
0 119 -26 150 -80 l18 -30 9 42 c18 90 100 108 222 49z m-297 -402 c38 -4 68
-14 79 -24 17 -17 19 -17 41 4 21 19 34 21 120 19 144 -3 230 -18 258 -44 l24
-22 24 22 c28 26 114 41 258 44 86 2 99 0 120 -19 22 -21 24 -21 41 -4 19 18
96 30 198 30 72 0 106 -13 120 -44 l12 -25 28 21 c22 17 36 20 73 15 46 -7
119 -38 130 -56 14 -22 -151 -207 -177 -198 -6 2 -16 18 -21 35 -9 33 -26 44
-26 17 0 -9 -7 -30 -16 -48 -39 -77 -94 -106 -164 -87 -44 12 -115 69 -125
101 -10 30 -22 22 -29 -18 -8 -50 -40 -101 -71 -113 -49 -18 -140 30 -293 154
l-82 67 -82 -67 c-153 -124 -244 -172 -293 -154 -31 12 -63 63 -71 113 -7 40
-19 48 -29 18 -10 -32 -81 -89 -125 -101 -70 -19 -125 10 -164 87 -9 18 -16
39 -16 48 0 27 -17 16 -26 -17 -5 -17 -15 -33 -21 -35 -26 -9 -191 176 -177
198 11 18 84 49 130 56 37 5 51 2 73 -15 l28 -21 12 25 c6 14 21 29 33 34 28
11 122 12 206 4z"/>
</g>
</svg>
