<svg id="visual" viewBox="0 0 450 900" width="450" height="900" xmlns="http://www.w3.org/2000/svg" xmlns:xlink="http://www.w3.org/1999/xlink" version="1.1"><rect x="0" y="0" width="450" height="900" fill="#121212"></rect><defs><linearGradient id="grad1_0" x1="0%" y1="0%" x2="100%" y2="100%"><stop offset="30%" stop-color="#121212" stop-opacity="1"></stop><stop offset="70%" stop-color="#121212" stop-opacity="1"></stop></linearGradient></defs><defs><linearGradient id="grad2_0" x1="0%" y1="0%" x2="100%" y2="100%"><stop offset="30%" stop-color="#121212" stop-opacity="1"></stop><stop offset="70%" stop-color="#121212" stop-opacity="1"></stop></linearGradient></defs><g transform="translate(450, 0)"><path d="M0 360C-43.6 347.4 -87.3 334.8 -132.4 319.7C-177.5 304.6 -224.1 286.9 -254.6 254.6C-285 222.2 -299.2 175 -314.1 130.1C-329 85.2 -344.5 42.6 -360 0L0 0Z" fill="#0078f2"></path></g><g transform="translate(0, 900)"><path d="M0 -360C44.2 -350.1 88.4 -340.2 134.7 -325.2C181 -310.2 229.3 -290.2 254.6 -254.6C279.8 -218.9 281.9 -167.5 295.6 -122.5C309.4 -77.4 334.7 -38.7 360 0L0 0Z" fill="#0078f2"></path></g></svg>