<svg id="visual" viewBox="0 0 675 900" width="675" height="900" xmlns="http://www.w3.org/2000/svg" xmlns:xlink="http://www.w3.org/1999/xlink" version="1.1"><rect x="0" y="0" width="675" height="900" fill="#121212"></rect><defs><linearGradient id="grad1_0" x1="0%" y1="0%" x2="100%" y2="100%"><stop offset="30%" stop-color="#121212" stop-opacity="1"></stop><stop offset="70%" stop-color="#121212" stop-opacity="1"></stop></linearGradient></defs><defs><linearGradient id="grad2_0" x1="0%" y1="0%" x2="100%" y2="100%"><stop offset="30%" stop-color="#121212" stop-opacity="1"></stop><stop offset="70%" stop-color="#121212" stop-opacity="1"></stop></linearGradient></defs><g transform="translate(675, 0)"><path d="M0 450C-62.8 447.8 -125.6 445.6 -172.2 415.7C-218.8 385.9 -249.3 328.5 -282.8 282.8C-316.4 237.2 -353.2 203.2 -381.6 158C-409.9 112.9 -430 56.4 -450 0L0 0Z" fill="#0078f2"></path></g><g transform="translate(0, 900)"><path d="M0 -450C54.1 -428.8 108.2 -407.6 159.6 -385.3C210.9 -362.9 259.5 -339.3 304.8 -304.8C350.1 -270.3 392.1 -224.8 415.7 -172.2C439.4 -119.6 444.7 -59.8 450 0L0 0Z" fill="#0078f2"></path></g></svg>